<svg width="129" height="159" viewBox="0 0 129 159" fill="none" xmlns="http://www.w3.org/2000/svg">
<rect x="5.85519" y="0.406036" width="117.285" height="144" rx="6.51584" fill="url(#paint0_linear_2_320)"/>
<path d="M63.1942 16.7964C64.0006 16.3308 64.9941 16.3308 65.8006 16.7964L80.1229 25.0654C80.9293 25.531 81.426 26.3914 81.426 27.3225V43.8605C81.426 44.7917 80.9293 45.6521 80.1229 46.1177L65.8006 54.3866C64.9942 54.8522 64.0006 54.8522 63.1942 54.3866L48.8719 46.1177C48.0655 45.6521 47.5687 44.7917 47.5687 43.8605V27.3225C47.5687 26.3914 48.0655 25.531 48.8719 25.0654L63.1942 16.7964Z" fill="#6D75FF"/>
<mask id="mask0_2_320" style="mask-type:alpha" maskUnits="userSpaceOnUse" x="47" y="16" width="35" height="39">
<path d="M63.1942 16.7964C64.0006 16.3308 64.9941 16.3308 65.8006 16.7964L80.1229 25.0654C80.9293 25.531 81.426 26.3914 81.426 27.3225V43.8605C81.426 44.7917 80.9293 45.6521 80.1229 46.1177L65.8006 54.3866C64.9942 54.8522 64.0006 54.8522 63.1942 54.3866L48.8719 46.1177C48.0655 45.6521 47.5687 44.7917 47.5687 43.8605V27.3225C47.5687 26.3914 48.0655 25.531 48.8719 25.0654L63.1942 16.7964Z" fill="#C4C4C4"/>
</mask>
<g mask="url(#mask0_2_320)">
<path d="M83.3933 41.7815L71.9905 30.7046L56.9431 36.7801C56.1088 37.117 55.8588 38.178 56.455 38.8519L69.71 53.8358V57.0937H83.3933V41.7815Z" fill="url(#paint1_linear_2_320)"/>
</g>
<path d="M73.4608 36.793C74.186 40.419 71.3456 41.527 69.8348 41.6277C69.8348 42.3328 69.5326 43.622 68.3239 43.1386C67.1153 42.6551 66.4102 41.3256 66.2087 40.7212C65.2418 41.2047 64.3957 40.5198 64.0936 40.1169C60.4675 41.3256 54.1219 39.8147 55.0285 34.3756C56.5393 29.2388 63.4892 25.6127 69.8348 29.2388C74.9112 32.1396 74.3673 35.4836 73.4608 36.793Z" fill="#6D75FF"/>
<path fill-rule="evenodd" clip-rule="evenodd" d="M71.0466 30.251C71.0719 30.1922 71.0936 30.1279 71.1098 30.0577C70.7306 29.7823 70.3071 29.5086 69.835 29.2388C68.9764 28.7482 68.1068 28.3904 67.2411 28.1511C66.4836 29.0082 65.9785 30.3747 66.3832 32.152C66.4432 32.4152 66.2784 32.6771 66.0153 32.737C65.7521 32.7969 65.4902 32.6322 65.4303 32.369C65.0103 30.5249 65.4222 28.9969 66.1832 27.9162C64.7019 27.6667 63.2504 27.7517 61.905 28.0984C61.9858 28.2075 62.058 28.3219 62.1219 28.4406C62.5632 29.2606 62.5728 30.2131 62.4594 30.8371C62.4111 31.1026 62.1567 31.2787 61.8912 31.2305C61.6256 31.1822 61.4495 30.9278 61.4978 30.6622C61.5858 30.1782 61.5653 29.4688 61.2612 28.9038C61.1686 28.7318 61.0459 28.5654 60.8809 28.4197C58.9729 29.1288 57.3428 30.3734 56.2407 31.9156C56.2705 32.4062 56.4052 32.8758 56.6587 33.2893C57.0639 33.9501 57.8083 34.5264 59.0629 34.8051C59.3264 34.8637 59.4925 35.1247 59.4339 35.3882C59.3754 35.6517 59.1144 35.8178 58.8509 35.7593C57.3859 35.4337 56.3929 34.7257 55.8255 33.8002C55.696 33.5889 55.5906 33.3695 55.5072 33.1446C55.3133 33.5427 55.1527 33.9541 55.0287 34.3757C54.4204 38.0252 57.0772 39.9062 59.9866 40.3837C60.0285 40.3334 60.0687 40.2826 60.1071 40.2314C60.9733 39.078 61.0787 37.5976 60.8934 36.5783C60.8451 36.3128 61.0212 36.0584 61.2868 36.0101C61.5523 35.9618 61.8067 36.1379 61.855 36.4035C62.0567 37.5128 61.9802 39.126 61.1094 40.4989C62.1694 40.544 63.212 40.4109 64.0938 40.1169C64.3959 40.5198 65.242 41.2047 66.2089 40.7213C66.4104 41.3256 67.1154 42.6552 68.3241 43.1386C69.5328 43.6221 69.835 42.3328 69.835 41.6278C71.3458 41.5271 74.1862 40.4191 73.461 36.7931C74.2177 35.7001 74.7217 33.1895 71.9152 30.7023C71.5036 31.5795 70.5727 32.0571 69.8288 32.243C69.567 32.3085 69.3017 32.1493 69.2362 31.8875C69.1707 31.6256 69.3299 31.3603 69.5918 31.2948C70.2198 31.1378 70.8253 30.7656 71.0466 30.251ZM63.6729 32.2065C63.6431 31.9383 63.4015 31.745 63.1332 31.7748C62.865 31.8046 62.6717 32.0462 62.7015 32.3145C62.7475 32.7287 62.6533 33.1789 62.3954 33.4012C62.1981 33.5712 61.7298 33.7499 60.6492 33.3176C60.3986 33.2174 60.1142 33.3393 60.0139 33.5899C59.9137 33.8405 60.0356 34.1249 60.2862 34.2251C61.1796 34.5825 61.9118 34.6508 62.4769 34.4587C62.621 34.7053 62.8261 34.9502 63.1054 35.1325C63.6475 35.4862 64.3684 35.5401 65.2188 35.115C65.4602 34.9943 65.558 34.7007 65.4373 34.4593C65.3166 34.2179 65.0231 34.1201 64.7817 34.2408C64.1816 34.5408 63.8384 34.4437 63.6396 34.3139C63.4797 34.2096 63.3571 34.0468 63.2761 33.8829C63.6757 33.3558 63.7235 32.6621 63.6729 32.2065ZM67.9175 34.1046C68.0672 33.8801 68.3706 33.8194 68.5952 33.9691C68.9672 34.2172 69.4337 34.6966 69.6246 35.3583C69.7814 35.9017 69.7381 36.5199 69.3814 37.1619C69.9168 37.453 70.424 37.933 70.8583 38.6568C70.9972 38.8883 70.9221 39.1885 70.6907 39.3273C70.4593 39.4662 70.1591 39.3911 70.0202 39.1597C69.5799 38.4258 69.0876 38.0523 68.6107 37.8859C68.5321 37.8834 68.4537 37.8621 68.3827 37.8212C68.2393 37.7895 68.0983 37.7748 67.9617 37.7727C67.264 37.7623 66.5989 38.0825 66.2068 38.3875C65.9937 38.5532 65.6867 38.5148 65.521 38.3018C65.3553 38.0887 65.3937 37.7817 65.6067 37.616C66.1211 37.216 66.997 36.7808 67.9764 36.7955C68.1293 36.7978 68.283 36.811 68.4365 36.8364C68.7675 36.3366 68.7727 35.9313 68.6855 35.6292C68.5742 35.2434 68.2853 34.9372 68.053 34.7823C67.8285 34.6326 67.7678 34.3292 67.9175 34.1046Z" fill="#FFA372"/>
<g filter="url(#filter0_d_2_320)">
<rect x="16.2803" y="111.175" width="96.4344" height="23.457" rx="11.7285" fill="white"/>
</g>
<path d="M65.8589 121.716C65.8589 121.335 65.9683 121.038 66.1873 120.824C66.4114 120.605 66.6981 120.496 67.0474 120.496C67.3966 120.496 67.6807 120.605 67.8996 120.824C68.1238 121.038 68.2358 121.335 68.2358 121.716C68.2358 122.096 68.1238 122.396 67.8996 122.615C67.6807 122.834 67.3966 122.943 67.0474 122.943C66.6981 122.943 66.4114 122.834 66.1873 122.615C65.9683 122.396 65.8589 122.096 65.8589 121.716ZM70.6285 120.597L67.5087 126.039H66.633L69.7527 120.597H70.6285ZM67.0474 121.035C66.719 121.035 66.5548 121.262 66.5548 121.716C66.5548 122.174 66.719 122.404 67.0474 122.404C67.2037 122.404 67.3236 122.349 67.407 122.239C67.4956 122.125 67.54 121.95 67.54 121.716C67.54 121.262 67.3758 121.035 67.0474 121.035ZM69.0412 124.914C69.0412 124.533 69.1507 124.236 69.3696 124.022C69.5937 123.803 69.8804 123.694 70.2297 123.694C70.5737 123.694 70.8552 123.803 71.0741 124.022C71.2983 124.236 71.4104 124.533 71.4104 124.914C71.4104 125.294 71.2983 125.594 71.0741 125.813C70.8552 126.032 70.5737 126.141 70.2297 126.141C69.8804 126.141 69.5937 126.032 69.3696 125.813C69.1507 125.594 69.0412 125.294 69.0412 124.914ZM70.2219 124.233C69.8935 124.233 69.7293 124.46 69.7293 124.914C69.7293 125.367 69.8935 125.594 70.2219 125.594C70.5503 125.594 70.7145 125.367 70.7145 124.914C70.7145 124.46 70.5503 124.233 70.2219 124.233ZM72.7783 121.16C72.6167 121.16 72.4811 121.106 72.3717 120.996C72.2622 120.887 72.2075 120.751 72.2075 120.59C72.2075 120.428 72.2622 120.293 72.3717 120.183C72.4811 120.074 72.6167 120.019 72.7783 120.019C72.9346 120.019 73.0676 120.074 73.177 120.183C73.2865 120.293 73.3412 120.428 73.3412 120.59C73.3412 120.751 73.2865 120.887 73.177 120.996C73.0676 121.106 72.9346 121.16 72.7783 121.16ZM73.2161 121.731V126.039H72.3248V121.731H73.2161ZM75.2778 120.253V126.039H74.3864V120.253H75.2778ZM80.3967 123.78C80.3967 123.941 80.3862 124.087 80.3654 124.218H77.0736C77.0996 124.562 77.2274 124.838 77.4567 125.046C77.6861 125.255 77.9676 125.359 78.3012 125.359C78.7807 125.359 79.1196 125.159 79.3176 124.757H80.2794C80.1491 125.153 79.9119 125.479 79.5678 125.735C79.229 125.985 78.8068 126.11 78.3012 126.11C77.8894 126.11 77.5193 126.019 77.1909 125.836C76.8677 125.649 76.6123 125.388 76.4246 125.054C76.2422 124.715 76.1509 124.325 76.1509 123.881C76.1509 123.438 76.2396 123.05 76.4168 122.716C76.5992 122.378 76.852 122.117 77.1752 121.935C77.5036 121.752 77.8789 121.661 78.3012 121.661C78.7078 121.661 79.07 121.749 79.388 121.927C79.706 122.104 79.9536 122.354 80.1308 122.677C80.308 122.995 80.3967 123.363 80.3967 123.78ZM79.4662 123.498C79.461 123.17 79.3437 122.907 79.1143 122.709C78.885 122.511 78.6009 122.411 78.2621 122.411C77.9545 122.411 77.6913 122.511 77.4724 122.709C77.2534 122.901 77.1231 123.165 77.0814 123.498H79.4662Z" fill="#636BF8"/>
<defs>
<filter id="filter0_d_2_320" x="0.642313" y="103.356" width="127.71" height="54.733" filterUnits="userSpaceOnUse" color-interpolation-filters="sRGB">
<feFlood flood-opacity="0" result="BackgroundImageFix"/>
<feColorMatrix in="SourceAlpha" type="matrix" values="0 0 0 0 0 0 0 0 0 0 0 0 0 0 0 0 0 0 127 0" result="hardAlpha"/>
<feOffset dy="7.819"/>
<feGaussianBlur stdDeviation="7.819"/>
<feColorMatrix type="matrix" values="0 0 0 0 0.040211 0 0 0 0 0.044602 0 0 0 0 0.149986 0 0 0 0.06 0"/>
<feBlend mode="normal" in2="BackgroundImageFix" result="effect1_dropShadow_2_320"/>
<feBlend mode="normal" in="SourceGraphic" in2="effect1_dropShadow_2_320" result="shape"/>
</filter>
<linearGradient id="paint0_linear_2_320" x1="61.4817" y1="0.406036" x2="61.4817" y2="177.427" gradientUnits="userSpaceOnUse">
<stop stop-color="#6D75FF" stop-opacity="0.12"/>
<stop offset="1" stop-color="#6D75FF" stop-opacity="0"/>
</linearGradient>
<linearGradient id="paint1_linear_2_320" x1="57.9659" y1="27.8657" x2="77.4968" y2="47.3966" gradientUnits="userSpaceOnUse">
<stop stop-color="#2F38D3"/>
<stop offset="1" stop-color="#2F38D3" stop-opacity="0"/>
</linearGradient>
</defs>
</svg>
