<svg width="129" height="159" viewBox="0 0 129 159" fill="none" xmlns="http://www.w3.org/2000/svg">
<rect x="5.57013" y="0.406036" width="117.285" height="144" rx="6.51584" fill="url(#paint0_linear_2_311)"/>
<path d="M62.9097 16.7964C63.7161 16.3308 64.7097 16.3308 65.5161 16.7964L79.8384 25.0654C80.6448 25.531 81.1416 26.3914 81.1416 27.3225V43.8605C81.1416 44.7917 80.6448 45.6521 79.8384 46.1177L65.5161 54.3866C64.7097 54.8522 63.7161 54.8522 62.9097 54.3866L48.5874 46.1177C47.781 45.6521 47.2843 44.7917 47.2843 43.8605V27.3225C47.2843 26.3914 47.781 25.531 48.5874 25.0654L62.9097 16.7964Z" fill="#FF5252"/>
<g filter="url(#filter0_d_2_311)">
<rect x="15.9956" y="111.175" width="96.4344" height="23.457" rx="11.7285" fill="white"/>
</g>
<path d="M64.8745 121.082C64.8745 120.702 64.9839 120.405 65.2029 120.191C65.427 119.972 65.7137 119.862 66.063 119.862C66.4122 119.862 66.6963 119.972 66.9152 120.191C67.1394 120.405 67.2515 120.702 67.2515 121.082C67.2515 121.463 67.1394 121.762 66.9152 121.981C66.6963 122.2 66.4122 122.31 66.063 122.31C65.7137 122.31 65.427 122.2 65.2029 121.981C64.9839 121.762 64.8745 121.463 64.8745 121.082ZM69.6441 119.964L66.5243 125.406H65.6486L68.7683 119.964H69.6441ZM66.063 120.402C65.7346 120.402 65.5704 120.629 65.5704 121.082C65.5704 121.541 65.7346 121.77 66.063 121.77C66.2193 121.77 66.3392 121.715 66.4226 121.606C66.5113 121.491 66.5556 121.317 66.5556 121.082C66.5556 120.629 66.3914 120.402 66.063 120.402ZM68.0568 124.28C68.0568 123.9 68.1663 123.602 68.3852 123.389C68.6094 123.17 68.8961 123.06 69.2453 123.06C69.5893 123.06 69.8708 123.17 70.0898 123.389C70.3139 123.602 70.426 123.9 70.426 124.28C70.426 124.661 70.3139 124.96 70.0898 125.179C69.8708 125.398 69.5893 125.508 69.2453 125.508C68.8961 125.508 68.6094 125.398 68.3852 125.179C68.1663 124.96 68.0568 124.661 68.0568 124.28ZM69.2375 123.6C68.9091 123.6 68.7449 123.827 68.7449 124.28C68.7449 124.734 68.9091 124.96 69.2375 124.96C69.5659 124.96 69.7301 124.734 69.7301 124.28C69.7301 123.827 69.5659 123.6 69.2375 123.6ZM71.7939 120.527C71.6323 120.527 71.4967 120.472 71.3873 120.363C71.2778 120.253 71.2231 120.118 71.2231 119.956C71.2231 119.795 71.2778 119.659 71.3873 119.55C71.4967 119.44 71.6323 119.385 71.7939 119.385C71.9502 119.385 72.0832 119.44 72.1926 119.55C72.3021 119.659 72.3568 119.795 72.3568 119.956C72.3568 120.118 72.3021 120.253 72.1926 120.363C72.0832 120.472 71.9502 120.527 71.7939 120.527ZM72.2317 121.098V125.406H71.3404V121.098H72.2317ZM74.2934 119.62V125.406H73.402V119.62H74.2934ZM79.4123 123.146C79.4123 123.308 79.4018 123.454 79.381 123.584H76.0892C76.1153 123.928 76.243 124.205 76.4723 124.413C76.7017 124.622 76.9832 124.726 77.3168 124.726C77.7963 124.726 78.1352 124.525 78.3332 124.124H79.295C79.1647 124.52 78.9275 124.846 78.5834 125.101C78.2446 125.351 77.8224 125.476 77.3168 125.476C76.905 125.476 76.5349 125.385 76.2065 125.203C75.8833 125.015 75.6279 124.754 75.4402 124.421C75.2578 124.082 75.1665 123.691 75.1665 123.248C75.1665 122.805 75.2552 122.417 75.4324 122.083C75.6148 121.744 75.8676 121.484 76.1908 121.301C76.5192 121.119 76.8945 121.027 77.3168 121.027C77.7234 121.027 78.0856 121.116 78.4036 121.293C78.7216 121.471 78.9692 121.721 79.1464 122.044C79.3236 122.362 79.4123 122.729 79.4123 123.146ZM78.4818 122.865C78.4766 122.536 78.3593 122.273 78.1299 122.075C77.9006 121.877 77.6165 121.778 77.2777 121.778C76.9701 121.778 76.7069 121.877 76.488 122.075C76.269 122.268 76.1387 122.531 76.097 122.865H78.4818Z" fill="#E66249"/>
<mask id="mask0_2_311" style="mask-type:alpha" maskUnits="userSpaceOnUse" x="47" y="16" width="35" height="39">
<path d="M62.9097 16.7964C63.7161 16.3308 64.7097 16.3308 65.5161 16.7964L79.8384 25.0654C80.6448 25.531 81.1416 26.3914 81.1416 27.3225V43.8605C81.1416 44.7917 80.6448 45.6521 79.8384 46.1177L65.5161 54.3866C64.7097 54.8522 63.7161 54.8522 62.9097 54.3866L48.5874 46.1177C47.781 45.6521 47.2843 44.7917 47.2843 43.8605V27.3225C47.2843 26.3914 47.781 25.531 48.5874 25.0654L62.9097 16.7964Z" fill="#C4C4C4"/>
</mask>
<g mask="url(#mask0_2_311)">
<g filter="url(#filter1_d_2_311)">
<path d="M60.7719 39.7397L61.7899 38.5498L58.5126 36.0977L61.7899 33.6456L60.7719 32.4557L56.6997 35.5028C56.6043 35.5741 56.5272 35.6647 56.4743 35.7676C56.4214 35.8706 56.3939 35.9834 56.3939 36.0977C56.3939 36.212 56.4214 36.3248 56.4743 36.4278C56.5272 36.5308 56.6043 36.6213 56.6997 36.6926L60.7719 39.7397ZM68.3055 32.4557L67.2874 33.6456L70.5647 36.0977L67.2874 38.5498L68.3055 39.7397L72.3777 36.6926C72.4731 36.6213 72.5501 36.5308 72.6031 36.4278C72.656 36.3248 72.6835 36.212 72.6835 36.0977C72.6835 35.9834 72.656 35.8706 72.6031 35.7676C72.5501 35.6647 72.4731 35.5741 72.3777 35.5028L68.3055 32.4557ZM66.9625 29.4064L63.7047 43.1181L62.1141 42.7875L65.3719 29.0757L66.9625 29.4064Z" fill="#FFC3C3"/>
</g>
</g>
<defs>
<filter id="filter0_d_2_311" x="0.357599" y="103.356" width="127.71" height="54.733" filterUnits="userSpaceOnUse" color-interpolation-filters="sRGB">
<feFlood flood-opacity="0" result="BackgroundImageFix"/>
<feColorMatrix in="SourceAlpha" type="matrix" values="0 0 0 0 0 0 0 0 0 0 0 0 0 0 0 0 0 0 127 0" result="hardAlpha"/>
<feOffset dy="7.819"/>
<feGaussianBlur stdDeviation="7.819"/>
<feColorMatrix type="matrix" values="0 0 0 0 0.040211 0 0 0 0 0.044602 0 0 0 0 0.149986 0 0 0 0.06 0"/>
<feBlend mode="normal" in2="BackgroundImageFix" result="effect1_dropShadow_2_311"/>
<feBlend mode="normal" in="SourceGraphic" in2="effect1_dropShadow_2_311" result="shape"/>
</filter>
<filter id="filter1_d_2_311" x="56.3939" y="29.0757" width="29.3213" height="25.7709" filterUnits="userSpaceOnUse" color-interpolation-filters="sRGB">
<feFlood flood-opacity="0" result="BackgroundImageFix"/>
<feColorMatrix in="SourceAlpha" type="matrix" values="0 0 0 0 0 0 0 0 0 0 0 0 0 0 0 0 0 0 127 0" result="hardAlpha"/>
<feOffset dx="7.819" dy="6.51584"/>
<feGaussianBlur stdDeviation="2.60633"/>
<feComposite in2="hardAlpha" operator="out"/>
<feColorMatrix type="matrix" values="0 0 0 0 0.4125 0 0 0 0 0 0 0 0 0 0 0 0 0 0.68 0"/>
<feBlend mode="normal" in2="BackgroundImageFix" result="effect1_dropShadow_2_311"/>
<feBlend mode="normal" in="SourceGraphic" in2="effect1_dropShadow_2_311" result="shape"/>
</filter>
<linearGradient id="paint0_linear_2_311" x1="61.1967" y1="0.406036" x2="64.2127" y2="150.27" gradientUnits="userSpaceOnUse">
<stop stop-color="#FF6966" stop-opacity="0.12"/>
<stop offset="1" stop-color="#F4F4F4"/>
</linearGradient>
</defs>
</svg>
