<svg width="595" height="121" viewBox="0 0 595 121" fill="none" xmlns="http://www.w3.org/2000/svg">
<g clip-path="url(#clip0_2_9)">
<rect width="595" height="121" fill="url(#paint0_linear_2_9)"/>
<rect x="30" y="18.5" width="38" height="38" rx="5.42857" fill="white"/>
<path d="M48.7074 35.6739L43.762 30.7199C43.7117 30.6696 43.6301 30.6696 43.5798 30.7199L34.5864 39.7289C34.5361 39.7793 34.5361 39.861 34.5864 39.9114L39.5318 44.8653C39.5821 44.9157 39.6636 44.9157 39.7139 44.8653L48.7074 35.8563C48.7577 35.806 48.7577 35.7243 48.7074 35.6739Z" fill="#2F80ED"/>
<path d="M58.4884 44.8402L63.3835 39.9367C63.4477 39.8724 63.4477 39.7681 63.3835 39.7038L54.4404 30.7453C54.3762 30.681 54.2721 30.681 54.2079 30.7453L49.3128 35.6488C49.2486 35.7131 49.2486 35.8174 49.3128 35.8817L58.256 44.8402C58.3202 44.9045 58.4242 44.9045 58.4884 44.8402Z" fill="#2F80ED"/>
<path d="M53.9076 44.5246L49.0777 39.6864C49.0369 39.6455 48.9707 39.6455 48.9299 39.6864L44.1 44.5246C44.0592 44.5655 44.0592 44.6318 44.1 44.6727L48.9299 49.5109C48.9707 49.5518 49.0369 49.5518 49.0777 49.5109L53.9076 44.6727C53.9484 44.6318 53.9484 44.5655 53.9076 44.5246Z" fill="#012555"/>
<path d="M53.9076 30.3553L49.0777 25.5171C49.0369 25.4762 48.9707 25.4762 48.9299 25.5171L44.1 30.3553C44.0592 30.3962 44.0592 30.4625 44.1 30.5034L48.9299 35.3416C48.9707 35.3825 49.0369 35.3825 49.0777 35.3416L53.9076 30.5034C53.9484 30.4625 53.9484 30.3962 53.9076 30.3553Z" fill="#012555"/>
<path d="M90.3556 41.2204H84.282L82.862 45H80.2185L86.1609 29.707H87.3188C88.1053 29.707 88.6515 30.0929 88.9573 30.8649L94.4191 45H91.7538L90.3556 41.2204ZM85.003 39.0794H89.6346L87.3407 32.8748H87.3188L85.003 39.0794ZM98.8169 45.1748C97.4769 45.1748 96.3991 44.7888 95.5835 44.0169C94.7825 43.2449 94.3819 42.2254 94.3819 40.9583V38.2055C94.3819 37.3608 94.564 36.618 94.9281 35.9771C95.2922 35.3217 95.8093 34.8192 96.4793 34.4697C97.1492 34.1055 97.9212 33.9235 98.7951 33.9235H100.543C101.795 33.9235 102.8 34.2876 103.558 35.0158C104.33 35.7295 104.716 36.6762 104.716 37.856H102.247C102.247 37.3316 102.087 36.9093 101.766 36.5888C101.46 36.2538 101.053 36.0864 100.543 36.0864H98.8169C98.2489 36.0864 97.7828 36.2975 97.4187 36.7199C97.0691 37.1423 96.8944 37.6885 96.8944 38.3585V40.8053C96.8944 41.4608 97.0691 41.9924 97.4187 42.4002C97.7828 42.808 98.2562 43.0119 98.8387 43.0119H100.565C101.104 43.0119 101.533 42.8153 101.854 42.422C102.189 42.0288 102.356 41.519 102.356 40.8927H104.825C104.825 42.1744 104.432 43.2085 103.645 43.995C102.873 44.7815 101.846 45.1748 100.565 45.1748H98.8169ZM109.997 45.1748C108.657 45.1748 107.58 44.7888 106.764 44.0169C105.963 43.2449 105.562 42.2254 105.562 40.9583V38.2055C105.562 37.3608 105.744 36.618 106.109 35.9771C106.473 35.3217 106.99 34.8192 107.66 34.4697C108.33 34.1055 109.102 33.9235 109.976 33.9235H111.723C112.976 33.9235 113.981 34.2876 114.738 35.0158C115.51 35.7295 115.896 36.6762 115.896 37.856H113.427C113.427 37.3316 113.267 36.9093 112.947 36.5888C112.641 36.2538 112.233 36.0864 111.723 36.0864H109.997C109.429 36.0864 108.963 36.2975 108.599 36.7199C108.25 37.1423 108.075 37.6885 108.075 38.3585V40.8053C108.075 41.4608 108.25 41.9924 108.599 42.4002C108.963 42.808 109.437 43.0119 110.019 43.0119H111.745C112.284 43.0119 112.714 42.8153 113.034 42.422C113.369 42.0288 113.537 41.519 113.537 40.8927H116.005C116.005 42.1744 115.612 43.2085 114.826 43.995C114.054 44.7815 113.027 45.1748 111.745 45.1748H109.997ZM118.818 32.8748C118.323 32.8748 117.923 32.7292 117.617 32.4379C117.325 32.132 117.18 31.746 117.18 31.28C117.18 30.8139 117.325 30.4352 117.617 30.1439C117.923 29.8381 118.323 29.6851 118.818 29.6851C119.314 29.6851 119.714 29.8381 120.02 30.1439C120.326 30.4352 120.479 30.8139 120.479 31.28C120.479 31.746 120.326 32.132 120.02 32.4379C119.714 32.7292 119.314 32.8748 118.818 32.8748ZM117.573 34.0983H120.085V45H117.573V34.0983ZM126.428 45.1748C125.088 45.1748 124.01 44.7888 123.194 44.0169C122.379 43.2304 121.971 42.1963 121.971 40.9146V38.2055C121.971 37.3608 122.153 36.618 122.517 35.9771C122.896 35.3217 123.42 34.8192 124.09 34.4697C124.775 34.1055 125.561 33.9235 126.449 33.9235H128.372C129.26 33.9235 130.04 34.1055 130.71 34.4697C131.394 34.8192 131.919 35.3217 132.283 35.9771C132.661 36.618 132.851 37.3608 132.851 38.2055V40.9146C132.851 42.1963 132.436 43.2304 131.605 44.0169C130.79 44.7888 129.697 45.1748 128.328 45.1748H126.428ZM128.306 43.0119C128.918 43.0119 129.406 42.808 129.77 42.4002C130.149 41.9778 130.338 41.4316 130.338 40.7616V38.3366C130.338 37.6666 130.156 37.1277 129.792 36.7199C129.428 36.2975 128.94 36.0864 128.328 36.0864H126.493C125.881 36.0864 125.394 36.2975 125.029 36.7199C124.665 37.1277 124.483 37.6666 124.483 38.3366V40.7616C124.483 41.4316 124.665 41.9778 125.029 42.4002C125.394 42.808 125.867 43.0119 126.449 43.0119H128.306ZM138.136 45.1748C137.204 45.1748 136.381 44.9563 135.668 44.5194C134.954 44.0679 134.4 43.4416 134.007 42.6405C133.614 41.8249 133.417 40.8927 133.417 39.8441H135.93C135.93 40.7762 136.134 41.5263 136.542 42.0943C136.949 42.6478 137.481 42.9245 138.136 42.9245H139.884C140.554 42.9245 141.086 42.6332 141.479 42.0506C141.887 41.4535 142.091 40.6597 142.091 39.6693V29.707H144.647V39.7567C144.647 40.849 144.45 41.803 144.057 42.6187C143.678 43.4343 143.132 44.0679 142.418 44.5194C141.719 44.9563 140.904 45.1748 139.972 45.1748H138.136ZM150.495 45.1748C149.155 45.1748 148.078 44.7888 147.262 44.0169C146.446 43.2304 146.039 42.1963 146.039 40.9146V38.2055C146.039 37.3608 146.221 36.618 146.585 35.9771C146.963 35.3217 147.488 34.8192 148.158 34.4697C148.842 34.1055 149.629 33.9235 150.517 33.9235H152.44C153.328 33.9235 154.107 34.1055 154.777 34.4697C155.462 34.8192 155.986 35.3217 156.35 35.9771C156.729 36.618 156.918 37.3608 156.918 38.2055V40.9146C156.918 42.1963 156.503 43.2304 155.673 44.0169C154.858 44.7888 153.765 45.1748 152.396 45.1748H150.495ZM152.374 43.0119C152.986 43.0119 153.474 42.808 153.838 42.4002C154.217 41.9778 154.406 41.4316 154.406 40.7616V38.3366C154.406 37.6666 154.224 37.1277 153.86 36.7199C153.496 36.2975 153.008 36.0864 152.396 36.0864H150.561C149.949 36.0864 149.461 36.2975 149.097 36.7199C148.733 37.1277 148.551 37.6666 148.551 38.3366V40.7616C148.551 41.4316 148.733 41.9778 149.097 42.4002C149.461 42.808 149.935 43.0119 150.517 43.0119H152.374ZM163.34 45.1748C162.874 45.1748 162.393 45.0291 161.898 44.7378C161.418 44.432 161.032 44.0533 160.74 43.6018V45H158.403V29.707H160.915V35.1032C161.206 34.7391 161.578 34.4551 162.029 34.2512C162.481 34.0327 162.932 33.9235 163.384 33.9235H164.913C165.714 33.9235 166.428 34.1055 167.054 34.4697C167.68 34.8192 168.168 35.3144 168.518 35.9553C168.867 36.5961 169.042 37.3316 169.042 38.1618V40.7616C169.042 41.6355 168.867 42.4075 168.518 43.0774C168.168 43.7474 167.673 44.2645 167.032 44.6286C166.406 44.9927 165.685 45.1748 164.869 45.1748H163.34ZM164.607 42.9682C165.175 42.9682 165.641 42.757 166.005 42.3346C166.37 41.8977 166.552 41.3297 166.552 40.6306V38.3148C166.552 37.6593 166.377 37.135 166.027 36.7418C165.678 36.334 165.226 36.13 164.673 36.13H163.275C162.634 36.13 162.095 36.3631 161.658 36.8292C161.221 37.2807 160.973 37.8778 160.915 38.6206V40.7616C160.988 41.4025 161.236 41.9341 161.658 42.3565C162.095 42.7643 162.597 42.9682 163.165 42.9682H164.607Z" fill="white"/>
<path d="M31.988 99V79.26H41.004C43.2067 79.26 44.9053 79.82 46.1 80.94C47.2947 82.0413 47.892 83.5813 47.892 85.56C47.892 87.5387 47.2947 89.088 46.1 90.208C44.9053 91.328 43.2067 91.888 41.004 91.888H36.328V99H31.988ZM36.328 88.528H40.276C42.572 88.528 43.72 87.5387 43.72 85.56C43.72 83.6187 42.572 82.648 40.276 82.648H36.328V88.528ZM55.9017 99.308C54.1284 99.308 52.8311 98.8507 52.0097 97.936C51.1884 97.0027 50.7777 95.6213 50.7777 93.792V79.26H55.0057V93.624C55.0057 95.1173 55.6684 95.864 56.9937 95.864C57.1991 95.864 57.3951 95.8547 57.5818 95.836C57.7871 95.8173 57.9831 95.78 58.1698 95.724L58.1138 99C57.4044 99.2053 56.6671 99.308 55.9017 99.308ZM65.31 99.308C64.2833 99.308 63.378 99.112 62.594 98.72C61.81 98.328 61.1846 97.796 60.718 97.124C60.27 96.452 60.046 95.696 60.046 94.856C60.046 93.8667 60.3073 93.0733 60.83 92.476C61.3526 91.8787 62.202 91.4587 63.378 91.216C64.554 90.9547 66.1126 90.824 68.054 90.824H69.062V90.348C69.062 89.5267 68.8753 88.948 68.502 88.612C68.1286 88.2573 67.494 88.08 66.598 88.08C65.8513 88.08 65.058 88.2013 64.218 88.444C63.3966 88.668 62.5753 89.0133 61.754 89.48L60.606 86.652C61.0913 86.3347 61.6793 86.0453 62.37 85.784C63.0793 85.5227 63.8166 85.3267 64.582 85.196C65.3473 85.0467 66.0753 84.972 66.766 84.972C68.894 84.972 70.4806 85.4573 71.526 86.428C72.5713 87.38 73.094 88.864 73.094 90.88V99H69.146V96.928C68.866 97.656 68.39 98.2347 67.718 98.664C67.0646 99.0933 66.262 99.308 65.31 99.308ZM66.262 96.48C67.046 96.48 67.7086 96.2093 68.25 95.668C68.7913 95.1267 69.062 94.4267 69.062 93.568V93.008H68.082C66.6446 93.008 65.6273 93.1387 65.03 93.4C64.4326 93.6427 64.134 94.072 64.134 94.688C64.134 95.2107 64.3113 95.64 64.666 95.976C65.0393 96.312 65.5713 96.48 66.262 96.48ZM83.4999 99.308C82.0066 99.308 80.6999 99.0187 79.5799 98.44C78.4786 97.8427 77.6292 97.0027 77.0319 95.92C76.4346 94.8373 76.1359 93.5587 76.1359 92.084C76.1359 90.6093 76.4346 89.34 77.0319 88.276C77.6292 87.212 78.4786 86.4 79.5799 85.84C80.6999 85.2613 82.0066 84.972 83.4999 84.972C84.3772 84.972 85.2639 85.1027 86.1599 85.364C87.0559 85.6253 87.7839 85.9987 88.3439 86.484L87.1679 89.396C86.7012 89.0227 86.1786 88.7333 85.5999 88.528C85.0212 88.304 84.4612 88.192 83.9199 88.192C82.8186 88.192 81.9599 88.5373 81.3439 89.228C80.7466 89.9 80.4479 90.8613 80.4479 92.112C80.4479 93.344 80.7466 94.3147 81.3439 95.024C81.9599 95.7147 82.8186 96.06 83.9199 96.06C84.4426 96.06 84.9932 95.9573 85.5719 95.752C86.1692 95.5467 86.7012 95.248 87.1679 94.856L88.3439 97.768C87.7839 98.2533 87.0559 98.636 86.1599 98.916C85.2639 99.1773 84.3772 99.308 83.4999 99.308ZM97.6056 99.308C95.9816 99.308 94.5816 99.0187 93.4056 98.44C92.2482 97.8427 91.3522 97.012 90.7176 95.948C90.1016 94.8653 89.7936 93.596 89.7936 92.14C89.7936 90.7213 90.0922 89.48 90.6896 88.416C91.3056 87.3333 92.1362 86.4933 93.1816 85.896C94.2456 85.28 95.4682 84.972 96.8496 84.972C98.8469 84.972 100.434 85.6067 101.61 86.876C102.786 88.1267 103.374 89.8253 103.374 91.972V93.036H93.8256C93.9749 94.1187 94.3669 94.912 95.0016 95.416C95.6549 95.9013 96.5509 96.144 97.6896 96.144C98.4362 96.144 99.1922 96.032 99.9576 95.808C100.723 95.584 101.414 95.2387 102.03 94.772L103.15 97.6C102.459 98.1227 101.61 98.5427 100.602 98.86C99.6122 99.1587 98.6136 99.308 97.6056 99.308ZM97.0176 87.772C96.1216 87.772 95.3936 88.0427 94.8336 88.584C94.2922 89.1253 93.9562 89.8813 93.8256 90.852H99.8736C99.7616 88.7987 98.8096 87.772 97.0176 87.772ZM106.449 99V85.252H110.593V87.24C111.003 86.5307 111.563 85.98 112.273 85.588C113.001 85.1773 113.841 84.972 114.793 84.972C115.763 84.972 116.585 85.1867 117.257 85.616C117.947 86.0453 118.47 86.6987 118.825 87.576C119.254 86.7547 119.87 86.12 120.673 85.672C121.494 85.2053 122.399 84.972 123.389 84.972C124.957 84.972 126.123 85.448 126.889 86.4C127.654 87.3333 128.037 88.78 128.037 90.74V99H123.809V90.88C123.809 89.9653 123.659 89.3027 123.361 88.892C123.081 88.4627 122.595 88.248 121.905 88.248C121.102 88.248 120.477 88.528 120.029 89.088C119.581 89.648 119.357 90.4413 119.357 91.468V99H115.129V90.88C115.129 89.9653 114.979 89.3027 114.681 88.892C114.382 88.4627 113.897 88.248 113.225 88.248C112.422 88.248 111.797 88.528 111.349 89.088C110.901 89.648 110.677 90.4413 110.677 91.468V99H106.449ZM138.976 99.308C137.352 99.308 135.952 99.0187 134.776 98.44C133.618 97.8427 132.722 97.012 132.088 95.948C131.472 94.8653 131.164 93.596 131.164 92.14C131.164 90.7213 131.462 89.48 132.06 88.416C132.676 87.3333 133.506 86.4933 134.552 85.896C135.616 85.28 136.838 84.972 138.22 84.972C140.217 84.972 141.804 85.6067 142.98 86.876C144.156 88.1267 144.744 89.8253 144.744 91.972V93.036H135.196C135.345 94.1187 135.737 94.912 136.372 95.416C137.025 95.9013 137.921 96.144 139.06 96.144C139.806 96.144 140.562 96.032 141.328 95.808C142.093 95.584 142.784 95.2387 143.4 94.772L144.52 97.6C143.829 98.1227 142.98 98.5427 141.972 98.86C140.982 99.1587 139.984 99.308 138.976 99.308ZM138.388 87.772C137.492 87.772 136.764 88.0427 136.204 88.584C135.662 89.1253 135.326 89.8813 135.196 90.852H141.244C141.132 88.7987 140.18 87.772 138.388 87.772ZM147.763 99V85.252H151.907V87.268C152.373 86.5213 152.999 85.952 153.783 85.56C154.567 85.168 155.444 84.972 156.415 84.972C158.039 84.972 159.252 85.448 160.055 86.4C160.857 87.3333 161.259 88.78 161.259 90.74V99H157.031V90.936C157.031 89.984 156.853 89.3027 156.499 88.892C156.144 88.4627 155.621 88.248 154.931 88.248C154.035 88.248 153.316 88.528 152.775 89.088C152.252 89.648 151.991 90.3947 151.991 91.328V99H147.763ZM171.723 99.308C167.859 99.308 165.927 97.432 165.927 93.68V88.416H163.323V85.252H165.927V81.22H170.155V85.252H174.215V88.416H170.155V93.512C170.155 94.296 170.332 94.884 170.687 95.276C171.06 95.668 171.648 95.864 172.451 95.864C172.694 95.864 172.946 95.836 173.207 95.78C173.487 95.724 173.786 95.6493 174.103 95.556L174.719 98.636C174.327 98.8413 173.86 99 173.319 99.112C172.778 99.2427 172.246 99.308 171.723 99.308ZM185.572 99V79.26H194.588C196.791 79.26 198.49 79.792 199.684 80.856C200.879 81.92 201.476 83.404 201.476 85.308C201.476 86.7827 201.094 88.0147 200.328 89.004C199.582 89.9747 198.508 90.6373 197.108 90.992C198.098 91.2907 198.91 92.0093 199.544 93.148L202.736 99H197.948L194.532 92.7C194.252 92.196 193.907 91.8507 193.496 91.664C193.086 91.4587 192.6 91.356 192.04 91.356H189.912V99H185.572ZM189.912 88.22H193.804C196.138 88.22 197.304 87.2867 197.304 85.42C197.304 83.572 196.138 82.648 193.804 82.648H189.912V88.22ZM212.022 99.308C210.398 99.308 208.998 99.0187 207.822 98.44C206.664 97.8427 205.768 97.012 205.134 95.948C204.518 94.8653 204.21 93.596 204.21 92.14C204.21 90.7213 204.508 89.48 205.106 88.416C205.722 87.3333 206.552 86.4933 207.598 85.896C208.662 85.28 209.884 84.972 211.266 84.972C213.263 84.972 214.85 85.6067 216.026 86.876C217.202 88.1267 217.79 89.8253 217.79 91.972V93.036H208.242C208.391 94.1187 208.783 94.912 209.418 95.416C210.071 95.9013 210.967 96.144 212.106 96.144C212.852 96.144 213.608 96.032 214.374 95.808C215.139 95.584 215.83 95.2387 216.446 94.772L217.566 97.6C216.875 98.1227 216.026 98.5427 215.018 98.86C214.028 99.1587 213.03 99.308 212.022 99.308ZM211.434 87.772C210.538 87.772 209.81 88.0427 209.25 88.584C208.708 89.1253 208.372 89.8813 208.242 90.852H214.29C214.178 88.7987 213.226 87.772 211.434 87.772ZM220.809 104.04V85.252H224.953V87.296C225.326 86.5867 225.896 86.0267 226.661 85.616C227.445 85.1867 228.322 84.972 229.293 84.972C230.488 84.972 231.533 85.2613 232.429 85.84C233.344 86.4187 234.053 87.24 234.557 88.304C235.061 89.368 235.313 90.6373 235.313 92.112C235.313 93.5867 235.061 94.8653 234.557 95.948C234.053 97.012 233.344 97.8427 232.429 98.44C231.533 99.0187 230.488 99.308 229.293 99.308C228.378 99.308 227.538 99.112 226.773 98.72C226.026 98.328 225.448 97.8053 225.037 97.152V104.04H220.809ZM228.033 96.144C228.929 96.144 229.657 95.8173 230.217 95.164C230.777 94.5107 231.057 93.4933 231.057 92.112C231.057 90.7493 230.777 89.7507 230.217 89.116C229.657 88.4627 228.929 88.136 228.033 88.136C227.118 88.136 226.381 88.4627 225.821 89.116C225.261 89.7507 224.981 90.7493 224.981 92.112C224.981 93.4933 225.261 94.5107 225.821 95.164C226.381 95.8173 227.118 96.144 228.033 96.144ZM245.067 99.308C243.592 99.308 242.304 99.0187 241.203 98.44C240.12 97.8427 239.28 97.012 238.683 95.948C238.085 94.8653 237.787 93.5867 237.787 92.112C237.787 90.656 238.085 89.396 238.683 88.332C239.28 87.2493 240.12 86.4187 241.203 85.84C242.304 85.2613 243.592 84.972 245.067 84.972C246.541 84.972 247.82 85.2613 248.903 85.84C250.004 86.4187 250.853 87.2493 251.451 88.332C252.067 89.396 252.375 90.656 252.375 92.112C252.375 93.5867 252.067 94.8653 251.451 95.948C250.853 97.012 250.004 97.8427 248.903 98.44C247.82 99.0187 246.541 99.308 245.067 99.308ZM245.067 96.144C245.963 96.144 246.691 95.8173 247.251 95.164C247.829 94.5107 248.119 93.4933 248.119 92.112C248.119 90.7493 247.829 89.7507 247.251 89.116C246.691 88.4627 245.963 88.136 245.067 88.136C244.171 88.136 243.443 88.4627 242.883 89.116C242.323 89.7507 242.043 90.7493 242.043 92.112C242.043 93.4933 242.323 94.5107 242.883 95.164C243.443 95.8173 244.171 96.144 245.067 96.144ZM255.507 99V85.252H259.651V87.632C260.304 86.0267 261.704 85.14 263.851 84.972L265.083 84.888L265.335 88.444L262.955 88.696C260.864 88.9013 259.819 89.9653 259.819 91.888V99H255.507ZM275.174 99.308C271.31 99.308 269.378 97.432 269.378 93.68V88.416H266.774V85.252H269.378V81.22H273.606V85.252H277.666V88.416H273.606V93.512C273.606 94.296 273.784 94.884 274.138 95.276C274.512 95.668 275.1 95.864 275.902 95.864C276.145 95.864 276.397 95.836 276.658 95.78C276.938 95.724 277.237 95.6493 277.554 95.556L278.17 98.636C277.778 98.8413 277.312 99 276.77 99.112C276.229 99.2427 275.697 99.308 275.174 99.308ZM298.6 99.308C296.472 99.308 294.652 98.888 293.14 98.048C291.628 97.208 290.461 96.032 289.64 94.52C288.837 92.9893 288.436 91.188 288.436 89.116C288.436 87.0627 288.837 85.28 289.64 83.768C290.461 82.2373 291.628 81.052 293.14 80.212C294.652 79.372 296.472 78.952 298.6 78.952C299.906 78.952 301.157 79.1573 302.352 79.568C303.546 79.9787 304.526 80.5387 305.292 81.248L303.948 84.692C303.108 84.0387 302.258 83.5627 301.4 83.264C300.56 82.9467 299.673 82.788 298.74 82.788C296.854 82.788 295.426 83.3387 294.456 84.44C293.504 85.5227 293.028 87.0813 293.028 89.116C293.028 91.1507 293.504 92.7187 294.456 93.82C295.426 94.9213 296.854 95.472 298.74 95.472C299.673 95.472 300.56 95.3227 301.4 95.024C302.258 94.7067 303.108 94.2213 303.948 93.568L305.292 97.012C304.526 97.7027 303.546 98.2627 302.352 98.692C301.157 99.1027 299.906 99.308 298.6 99.308ZM312.461 99.308C311.435 99.308 310.529 99.112 309.745 98.72C308.961 98.328 308.336 97.796 307.869 97.124C307.421 96.452 307.197 95.696 307.197 94.856C307.197 93.8667 307.459 93.0733 307.981 92.476C308.504 91.8787 309.353 91.4587 310.529 91.216C311.705 90.9547 313.264 90.824 315.205 90.824H316.213V90.348C316.213 89.5267 316.027 88.948 315.653 88.612C315.28 88.2573 314.645 88.08 313.749 88.08C313.003 88.08 312.209 88.2013 311.369 88.444C310.548 88.668 309.727 89.0133 308.905 89.48L307.757 86.652C308.243 86.3347 308.831 86.0453 309.521 85.784C310.231 85.5227 310.968 85.3267 311.733 85.196C312.499 85.0467 313.227 84.972 313.917 84.972C316.045 84.972 317.632 85.4573 318.677 86.428C319.723 87.38 320.245 88.864 320.245 90.88V99H316.297V96.928C316.017 97.656 315.541 98.2347 314.869 98.664C314.216 99.0933 313.413 99.308 312.461 99.308ZM313.413 96.48C314.197 96.48 314.86 96.2093 315.401 95.668C315.943 95.1267 316.213 94.4267 316.213 93.568V93.008H315.233C313.796 93.008 312.779 93.1387 312.181 93.4C311.584 93.6427 311.285 94.072 311.285 94.688C311.285 95.2107 311.463 95.64 311.817 95.976C312.191 96.312 312.723 96.48 313.413 96.48ZM323.959 99V85.252H328.103V87.632C328.757 86.0267 330.157 85.14 332.303 84.972L333.535 84.888L333.787 88.444L331.407 88.696C329.317 88.9013 328.271 89.9653 328.271 91.888V99H323.959ZM341.16 99.308C339.966 99.308 338.911 99.0187 337.996 98.44C337.1 97.8427 336.4 97.012 335.896 95.948C335.392 94.8653 335.14 93.5867 335.14 92.112C335.14 90.6373 335.392 89.368 335.896 88.304C336.4 87.24 337.1 86.4187 337.996 85.84C338.911 85.2613 339.966 84.972 341.16 84.972C342.075 84.972 342.915 85.168 343.68 85.56C344.446 85.952 345.024 86.4747 345.416 87.128V79.26H349.644V99H345.5V96.928C345.127 97.656 344.548 98.2347 343.764 98.664C342.999 99.0933 342.131 99.308 341.16 99.308ZM342.42 96.144C343.316 96.144 344.044 95.8173 344.604 95.164C345.183 94.5107 345.472 93.4933 345.472 92.112C345.472 90.7493 345.183 89.7507 344.604 89.116C344.044 88.4627 343.316 88.136 342.42 88.136C341.524 88.136 340.796 88.4627 340.236 89.116C339.676 89.7507 339.396 90.7493 339.396 92.112C339.396 93.4933 339.676 94.5107 340.236 95.164C340.796 95.8173 341.524 96.144 342.42 96.144Z" fill="white"/>
<g opacity="0.2">
<path d="M580.935 82.3514L562.929 64.3147C562.746 64.1313 562.449 64.1313 562.266 64.3147L529.522 97.1152C529.339 97.2986 529.339 97.596 529.522 97.7794L547.527 115.816C547.711 116 548.007 116 548.191 115.816L580.935 83.0156C581.118 82.8322 581.118 82.5348 580.935 82.3514Z" fill="white"/>
<path d="M616.546 115.725L634.369 97.8719C634.602 97.6377 634.602 97.2581 634.369 97.024L601.808 64.4072C601.574 64.173 601.195 64.173 600.961 64.4072L583.139 82.2602C582.905 82.4943 582.905 82.8739 583.139 83.1081L615.7 115.725C615.934 115.959 616.312 115.959 616.546 115.725Z" fill="white"/>
<path d="M599.868 114.576L582.283 96.9605C582.134 96.8117 581.893 96.8117 581.745 96.9605L564.16 114.576C564.011 114.725 564.011 114.966 564.16 115.115L581.745 132.73C581.893 132.879 582.134 132.879 582.283 132.73L599.868 115.115C600.017 114.966 600.017 114.725 599.868 114.576Z" fill="white"/>
<path d="M599.868 62.9872L582.283 45.372C582.134 45.2231 581.893 45.2231 581.745 45.372L564.16 62.9872C564.011 63.1361 564.011 63.3775 564.16 63.5263L581.745 81.1416C581.893 81.2905 582.134 81.2905 582.283 81.1416L599.868 63.5263C600.017 63.3775 600.017 63.1361 599.868 62.9872Z" fill="white"/>
</g>
<g opacity="0.2">
<path d="M468.935 82.3514L450.929 64.3147C450.746 64.1313 450.449 64.1313 450.266 64.3147L417.522 97.1152C417.339 97.2986 417.339 97.596 417.522 97.7794L435.527 115.816C435.711 116 436.007 116 436.191 115.816L468.935 83.0156C469.118 82.8322 469.118 82.5348 468.935 82.3514Z" fill="white"/>
<path d="M504.546 115.725L522.369 97.8719C522.602 97.6377 522.602 97.2581 522.369 97.024L489.808 64.4072C489.574 64.173 489.195 64.173 488.961 64.4072L471.139 82.2602C470.905 82.4943 470.905 82.8739 471.139 83.1081L503.7 115.725C503.934 115.959 504.312 115.959 504.546 115.725Z" fill="white"/>
<path d="M487.868 114.576L470.283 96.9605C470.134 96.8117 469.893 96.8117 469.745 96.9605L452.16 114.576C452.011 114.725 452.011 114.966 452.16 115.115L469.745 132.73C469.893 132.879 470.134 132.879 470.283 132.73L487.868 115.115C488.017 114.966 488.017 114.725 487.868 114.576Z" fill="white"/>
<path d="M487.868 62.9872L470.283 45.372C470.134 45.2231 469.893 45.2231 469.745 45.372L452.16 62.9872C452.011 63.1361 452.011 63.3775 452.16 63.5263L469.745 81.1416C469.893 81.2905 470.134 81.2905 470.283 81.1416L487.868 63.5263C488.017 63.3775 488.017 63.1361 487.868 62.9872Z" fill="white"/>
</g>
<g opacity="0.2">
<path d="M524.935 24.3514L506.929 6.3147C506.746 6.13129 506.449 6.13129 506.266 6.3147L473.522 39.1152C473.339 39.2986 473.339 39.596 473.522 39.7794L491.527 57.8161C491.711 57.9996 492.007 57.9996 492.191 57.8162L524.935 25.0156C525.118 24.8322 525.118 24.5348 524.935 24.3514Z" fill="white"/>
<path d="M560.546 57.7249L578.369 39.8719C578.602 39.6377 578.602 39.2581 578.369 39.024L545.808 6.40717C545.574 6.17303 545.195 6.17303 544.961 6.40717L527.139 24.2602C526.905 24.4943 526.905 24.8739 527.139 25.1081L559.7 57.7249C559.934 57.959 560.312 57.959 560.546 57.7249Z" fill="white"/>
<path d="M543.868 56.5758L526.283 38.9605C526.134 38.8117 525.893 38.8117 525.745 38.9605L508.16 56.5758C508.011 56.7246 508.011 56.966 508.16 57.1149L525.745 74.7301C525.893 74.879 526.134 74.879 526.283 74.7301L543.868 57.1149C544.017 56.966 544.017 56.7246 543.868 56.5758Z" fill="white"/>
<path d="M543.868 4.98721L526.283 -12.628C526.134 -12.7769 525.893 -12.7769 525.745 -12.628L508.16 4.98722C508.011 5.1361 508.011 5.37747 508.16 5.52635L525.745 23.1416C525.893 23.2905 526.134 23.2905 526.283 23.1416L543.868 5.52634C544.017 5.37747 544.017 5.13609 543.868 4.98721Z" fill="white"/>
</g>
</g>
<defs>
<linearGradient id="paint0_linear_2_9" x1="0" y1="60.984" x2="595" y2="60.984" gradientUnits="userSpaceOnUse">
<stop stop-color="#012555"/>
<stop offset="1" stop-color="#003A8C"/>
</linearGradient>
<clipPath id="clip0_2_9">
<rect width="595" height="121" fill="white"/>
</clipPath>
</defs>
</svg>
