<svg width="129" height="159" viewBox="0 0 129 159" fill="none" xmlns="http://www.w3.org/2000/svg">
<rect x="6" y="0.406036" width="117.285" height="144" rx="6.51584" fill="url(#paint0_linear_2_269)"/>
<path d="M63.2534 16.8015C64.0617 16.333 65.0588 16.333 65.8671 16.8015L80.1181 25.0604C80.9225 25.5266 81.4176 26.3858 81.4176 27.3154V43.8505C81.4176 44.7801 80.9225 45.6393 80.1181 46.1055L65.8671 54.3644C65.0588 54.8329 64.0617 54.8329 63.2534 54.3644L49.0024 46.1055C48.198 45.6393 47.7029 44.7801 47.7029 43.8505V27.3154C47.7029 26.3858 48.198 25.5266 49.0024 25.0604L63.2534 16.8015Z" fill="#00AF91"/>
<mask id="mask0_2_269" style="mask-type:alpha" maskUnits="userSpaceOnUse" x="47" y="16" width="35" height="39">
<path d="M63.3357 16.8014C64.144 16.333 65.1411 16.333 65.9494 16.8014L80.2717 25.1017C81.076 25.5678 81.5712 26.4271 81.5712 27.3567V43.9743C81.5712 44.904 81.076 45.7632 80.2717 46.2294L65.9494 54.5296C65.1411 54.9981 64.144 54.9981 63.3357 54.5296L49.0134 46.2294C48.2091 45.7632 47.7139 44.904 47.7139 43.9743V27.3567C47.7139 26.4271 48.2091 25.5678 49.0134 25.1017L63.3357 16.8014Z" fill="#C4C4C4"/>
</mask>
<g mask="url(#mask0_2_269)">
<path d="M82.5242 40.303L73.2669 30.3751L57.5543 41.6212L68.5845 52.6933V55.9497L83.5411 57.093L82.5242 40.303Z" fill="url(#paint1_linear_2_269)"/>
</g>
<path d="M69.61 28.9232H66.776C66.6387 28.9232 66.5801 29.1337 66.6904 29.2153C67.0404 29.4744 67.4705 29.8885 67.5255 30.387C67.6681 31.6809 66.9022 31.8396 66.4723 31.8296L66.1961 31.7981C66.1961 31.7981 66.3104 31.8258 66.4723 31.8296L69.4256 32.1665C70.3909 32.2766 71.2369 31.5216 71.2369 30.5501C71.2369 29.6515 70.5085 28.9232 69.61 28.9232Z" fill="#007965"/>
<path d="M66.0063 42.7645H60.6939C60.6897 42.7645 60.6855 42.7645 60.6813 42.7644C60.6796 42.7644 60.678 42.7643 60.6763 42.7643H66.0416C66.0299 42.7645 66.0181 42.7645 66.0063 42.7645Z" fill="url(#paint2_linear_2_269)"/>
<path fill-rule="evenodd" clip-rule="evenodd" d="M58.6833 32.1888C57.9563 35.2215 58.4571 37.9822 59.0978 39.922C59.4176 39.5502 59.8942 39.3143 60.4264 39.3143H66.055C66.1536 39.3143 66.2114 39.4307 66.1552 39.5107C65.9748 39.7674 65.6748 40.2528 65.5203 40.8282C65.1172 42.3291 66.006 42.6753 66.2958 42.747C67.59 42.5893 68.539 41.3884 68.3895 40.0706C68.2796 39.1019 68.1703 37.9412 68.1017 36.7075C66.643 37.4615 65.1126 36.9408 65.2041 35.6939C65.4939 34.7661 66.4321 33.1149 68.1159 31.9547C68.1568 31.4364 68.214 30.9317 68.2904 30.4493C68.5626 28.7308 69.9196 28.9648 69.9196 28.9648C69.9196 28.9648 67.8954 28.48 64.7068 28.4382C63.4219 28.4214 62.469 28.5036 61.7892 28.6078C60.8284 28.7551 59.978 29.2809 59.4952 30.1157C59.2004 30.6254 58.8936 31.3116 58.6833 32.1888ZM63.7709 31.8948C62.4834 31.5319 61.1729 31.7195 60.8337 31.8189C60.6797 31.864 60.518 31.7772 60.4724 31.625C60.4267 31.4728 60.5145 31.3128 60.6684 31.2676C61.0964 31.1422 62.5207 30.9445 63.9302 31.3418C64.0846 31.3853 64.1741 31.5443 64.1301 31.697C64.0861 31.8497 63.9253 31.9383 63.7709 31.8948ZM60.2523 33.5439C60.5915 33.4444 61.9021 33.2569 63.1896 33.6197C63.344 33.6633 63.5048 33.5747 63.5488 33.422C63.5927 33.2693 63.5033 33.1103 63.3489 33.0668C61.9394 32.6695 60.515 32.8672 60.0871 32.9926C59.9332 33.0378 59.8454 33.1977 59.891 33.35C59.9367 33.5022 60.0984 33.589 60.2523 33.5439Z" fill="url(#paint3_linear_2_269)"/>
<path d="M73.0576 30.6729C68.1556 30.306 65.7063 34.0861 65.2041 35.6939C65.0644 37.5961 68.6997 37.8082 70.0962 34.383C71.2066 31.6597 72.1575 31.2468 73.0888 30.8743C73.1983 30.8305 73.1754 30.6817 73.0576 30.6729Z" fill="url(#paint4_linear_2_269)"/>
<path fill-rule="evenodd" clip-rule="evenodd" d="M65.5269 35.7538C65.5128 36.0919 65.6557 36.3397 65.8967 36.5041C66.1585 36.6826 66.5581 36.7742 67.0324 36.7131C67.9705 36.5922 69.136 35.8751 69.7945 34.26C70.3586 32.8767 70.8943 32.0488 71.4299 31.5161C71.6616 31.2857 71.8897 31.1143 72.1119 30.9788C70.2144 31.0466 68.7575 31.7808 67.6925 32.6906C66.4727 33.7326 65.7715 35.002 65.5269 35.7538ZM64.8951 35.5904L63.8152 38.6159C63.7547 38.7854 63.843 38.9718 64.0125 39.0323C64.182 39.0928 64.3684 39.0044 64.4289 38.835L65.1834 36.7208C65.2799 36.8437 65.3964 36.9516 65.5296 37.0424C65.9538 37.3316 66.5241 37.4356 67.1157 37.3594C68.3095 37.2055 69.6599 36.3161 70.3979 34.506C70.9442 33.1661 71.4391 32.4259 71.8894 31.9781C72.3332 31.5367 72.7516 31.36 73.2097 31.1768C73.4081 31.0975 73.5099 30.9015 73.4804 30.7107C73.4509 30.52 73.2947 30.3639 73.0819 30.348C70.5343 30.1573 68.6137 31.0467 67.2693 32.1951C65.9371 33.3332 65.1659 34.7287 64.8951 35.5904Z" fill="url(#paint5_linear_2_269)"/>
<path d="M69.9197 31.8416C69.1815 31.9475 67.5749 32.4948 66.5299 35.1761" stroke="#F2F2F2" stroke-width="0.521267" stroke-linecap="round"/>
<path d="M58.6638 39.3138H66.0234C66.1341 39.3138 66.1992 39.4468 66.1362 39.5379C65.9543 39.8009 65.6697 40.2724 65.5206 40.8277C65.0422 42.609 66.3835 42.7638 66.3835 42.7638H58.6638C57.7111 42.7638 56.9388 41.9915 56.9388 41.0388C56.9388 40.0861 57.7111 39.3138 58.6638 39.3138Z" fill="#007965"/>
<circle cx="55.8462" cy="21.5826" r="3.58371" fill="url(#paint6_linear_2_269)"/>
<g filter="url(#filter0_d_2_269)">
<rect x="16.4252" y="111.175" width="96.4344" height="23.457" rx="11.7285" fill="white"/>
</g>
<path d="M64.8744 121.082C64.8744 120.702 64.9838 120.405 65.2028 120.191C65.4269 119.972 65.7136 119.862 66.0628 119.862C66.4121 119.862 66.6962 119.972 66.9151 120.191C67.1393 120.405 67.2513 120.702 67.2513 121.082C67.2513 121.463 67.1393 121.762 66.9151 121.981C66.6962 122.2 66.4121 122.31 66.0628 122.31C65.7136 122.31 65.4269 122.2 65.2028 121.981C64.9838 121.762 64.8744 121.463 64.8744 121.082ZM69.6439 119.964L66.5242 125.406H65.6484L68.7682 119.964H69.6439ZM66.0628 120.402C65.7344 120.402 65.5702 120.629 65.5702 121.082C65.5702 121.541 65.7344 121.77 66.0628 121.77C66.2192 121.77 66.3391 121.715 66.4225 121.606C66.5111 121.491 66.5554 121.317 66.5554 121.082C66.5554 120.629 66.3912 120.402 66.0628 120.402ZM68.0567 124.28C68.0567 123.9 68.1662 123.602 68.3851 123.389C68.6092 123.17 68.8959 123.06 69.2452 123.06C69.5892 123.06 69.8707 123.17 70.0896 123.389C70.3138 123.602 70.4258 123.9 70.4258 124.28C70.4258 124.661 70.3138 124.96 70.0896 125.179C69.8707 125.398 69.5892 125.508 69.2452 125.508C68.8959 125.508 68.6092 125.398 68.3851 125.179C68.1662 124.96 68.0567 124.661 68.0567 124.28ZM69.2374 123.6C68.909 123.6 68.7448 123.827 68.7448 124.28C68.7448 124.734 68.909 124.96 69.2374 124.96C69.5658 124.96 69.73 124.734 69.73 124.28C69.73 123.827 69.5658 123.6 69.2374 123.6ZM71.7937 120.527C71.6322 120.527 71.4966 120.472 71.3872 120.363C71.2777 120.253 71.223 120.118 71.223 119.956C71.223 119.795 71.2777 119.659 71.3872 119.55C71.4966 119.44 71.6322 119.385 71.7937 119.385C71.9501 119.385 72.083 119.44 72.1925 119.55C72.302 119.659 72.3567 119.795 72.3567 119.956C72.3567 120.118 72.302 120.253 72.1925 120.363C72.083 120.472 71.9501 120.527 71.7937 120.527ZM72.2316 121.098V125.406H71.3402V121.098H72.2316ZM74.2933 119.62V125.406H73.4019V119.62H74.2933ZM79.4121 123.146C79.4121 123.308 79.4017 123.454 79.3809 123.584H76.0891C76.1151 123.928 76.2428 124.205 76.4722 124.413C76.7016 124.622 76.983 124.726 77.3166 124.726C77.7962 124.726 78.135 124.525 78.3331 124.124H79.2949C79.1645 124.52 78.9274 124.846 78.5833 125.101C78.2445 125.351 77.8223 125.476 77.3166 125.476C76.9048 125.476 76.5347 125.385 76.2063 125.203C75.8832 125.015 75.6277 124.754 75.4401 124.421C75.2576 124.082 75.1664 123.691 75.1664 123.248C75.1664 122.805 75.255 122.417 75.4323 122.083C75.6147 121.744 75.8675 121.484 76.1907 121.301C76.5191 121.119 76.8944 121.027 77.3166 121.027C77.7232 121.027 78.0855 121.116 78.4035 121.293C78.7215 121.471 78.9691 121.721 79.1463 122.044C79.3235 122.362 79.4121 122.729 79.4121 123.146ZM78.4817 122.865C78.4765 122.536 78.3592 122.273 78.1298 122.075C77.9005 121.877 77.6164 121.778 77.2776 121.778C76.97 121.778 76.7068 121.877 76.4878 122.075C76.2689 122.268 76.1386 122.531 76.0969 122.865H78.4817Z" fill="#00AF91"/>
<defs>
<filter id="filter0_d_2_269" x="0.787226" y="103.356" width="127.71" height="54.733" filterUnits="userSpaceOnUse" color-interpolation-filters="sRGB">
<feFlood flood-opacity="0" result="BackgroundImageFix"/>
<feColorMatrix in="SourceAlpha" type="matrix" values="0 0 0 0 0 0 0 0 0 0 0 0 0 0 0 0 0 0 127 0" result="hardAlpha"/>
<feOffset dy="7.819"/>
<feGaussianBlur stdDeviation="7.819"/>
<feColorMatrix type="matrix" values="0 0 0 0 0.040211 0 0 0 0 0.044602 0 0 0 0 0.149986 0 0 0 0.06 0"/>
<feBlend mode="normal" in2="BackgroundImageFix" result="effect1_dropShadow_2_269"/>
<feBlend mode="normal" in="SourceGraphic" in2="effect1_dropShadow_2_269" result="shape"/>
</filter>
<linearGradient id="paint0_linear_2_269" x1="64.6425" y1="-15.232" x2="64.6425" y2="274.397" gradientUnits="userSpaceOnUse">
<stop stop-color="#00AF91" stop-opacity="0.12"/>
<stop offset="1" stop-color="#F2F2F2" stop-opacity="0"/>
</linearGradient>
<linearGradient id="paint1_linear_2_269" x1="59.8584" y1="27.1334" x2="76.444" y2="46.6064" gradientUnits="userSpaceOnUse">
<stop stop-color="#007965"/>
<stop offset="1" stop-color="#007965" stop-opacity="0"/>
</linearGradient>
<linearGradient id="paint2_linear_2_269" x1="63.9908" y1="29.4016" x2="63.9908" y2="42.7591" gradientUnits="userSpaceOnUse">
<stop stop-color="#E2F9F5"/>
<stop offset="1" stop-color="#9ABCB6"/>
</linearGradient>
<linearGradient id="paint3_linear_2_269" x1="63.9908" y1="29.4016" x2="63.9908" y2="42.7591" gradientUnits="userSpaceOnUse">
<stop stop-color="#E2F9F5"/>
<stop offset="1" stop-color="#9ABCB6"/>
</linearGradient>
<linearGradient id="paint4_linear_2_269" x1="68.6408" y1="30.6479" x2="68.6408" y2="38.7255" gradientUnits="userSpaceOnUse">
<stop stop-color="#FFBC6D"/>
<stop offset="1" stop-color="#DE9239"/>
</linearGradient>
<linearGradient id="paint5_linear_2_269" x1="68.6408" y1="30.6479" x2="68.6408" y2="38.7255" gradientUnits="userSpaceOnUse">
<stop stop-color="#FFBC6D"/>
<stop offset="1" stop-color="#DE9239"/>
</linearGradient>
<linearGradient id="paint6_linear_2_269" x1="55.8462" y1="17.9988" x2="55.8462" y2="25.1663" gradientUnits="userSpaceOnUse">
<stop stop-color="#EE6F57"/>
<stop offset="1" stop-color="#D64428"/>
</linearGradient>
</defs>
</svg>
